<svg width="23" height="23" viewBox="0 0 23 23" fill="none" xmlns="http://www.w3.org/2000/svg">
<path d="M20.19 8.46L8.19002 20.46C7.91392 20.7302 7.56739 20.9173 7.19002 21L3.65002 21.71C3.32774 21.7737 2.99471 21.7571 2.68039 21.6616C2.36606 21.566 2.08011 21.3945 1.84781 21.1622C1.61551 20.9299 1.44401 20.644 1.34847 20.3296C1.25293 20.0153 1.23629 19.6823 1.30002 19.36L2.00002 15.85C2.08269 15.4726 2.26981 15.1261 2.54002 14.85L14.38 3C14.7666 2.60389 15.2285 2.28911 15.7386 2.07419C16.2486 1.85927 16.7965 1.74855 17.35 1.74855C17.9035 1.74855 18.4514 1.85927 18.9615 2.07419C19.4715 2.28911 19.9334 2.60389 20.32 3C21.009 3.75994 21.3796 4.7555 21.3554 5.78096C21.3313 6.80642 20.914 7.7834 20.19 8.51V8.46Z" stroke="#212325" stroke-width="2" stroke-linecap="round" stroke-linejoin="round"/>
</svg>
